# xmcd
#
# Track frame offsets: 
#        150
#        19016
#        38496
#        55611
#        75744
#        96407
#        119213
#        136366
#        164548
#
# Disc length: 2563 seconds
#
# Revision: 0
# Processed by: cddbd v1.5.2PL0 Copyright (c) Steve Scherf et al.
# Submitted via: ExactAudioCopy v1.0b3
#
DISCID=730a0109
DTITLE=Tony Vegas - Nawlins Renaissance
DYEAR=2006
DGENRE=Blues Rock
TTITLE0=Nawlins Renaissance
TTITLE1=The Knife
TTITLE2=Tried to Be a Star
TTITLE3=When I Met You, Baby
TTITLE4=I Can't Stop Thinking About You
TTITLE5=I'll Play the Blues for You
TTITLE6=Hide Away
TTITLE7=That's What They Call the Blues
TTITLE8=Big Fun (The Dynosaur Song)
EXTD=
EXTT0=
EXTT1=
EXTT2=
EXTT3=
EXTT4=
EXTT5=
EXTT6=
EXTT7=
EXTT8=
PLAYORDER=
